<?xml version="1.0" encoding="utf-8"?>
<!-- Generator: Adobe Illustrator 24.3.0, SVG Export Plug-In . SVG Version: 6.00 Build 0)  -->
<svg version="1.1" id="Layer_1" xmlns="http://www.w3.org/2000/svg" xmlns:xlink="http://www.w3.org/1999/xlink" x="0px" y="0px"
	 viewBox="0 0 122 36" style="enable-background:new 0 0 122 36;" xml:space="preserve">
<style type="text/css">
	.st0{fill:none;}
	.st1{fill:#010101;}
</style>
<g>
	<path class="st0" d="M52.75,15.09v1.82c0.14,0.01,0.3,0.02,0.46,0.02c0.11,0,0.23,0,0.35-0.01c0.06-0.16,0.11-0.34,0.11-0.55
		C53.66,15.64,53.26,15.27,52.75,15.09z"/>
	<path class="st1" d="M10.55,22.15v-10.2c0-0.16,0.02-0.33,0.07-0.49c-1.78,0.01-1.98,1.17-1.98,1.68v10.2
		c0,1.32,0.67,1.99,1.99,1.99h5.15c0.94,0,1.53-0.52,1.65-1.44h-5.14C11.12,23.89,10.55,23.32,10.55,22.15z"/>
	<path class="st1" d="M31.08,22.56V19.5l-3.68-6.55c-0.05-0.1-0.1-0.19-0.15-0.27c-0.22-0.38-0.43-0.75-0.43-1.14
		c0-0.02,0-0.05,0.01-0.07c-1.66,0.01-1.92,0.79-1.92,1.27c0,0.46,0.23,0.87,0.46,1.27l3.8,6.76v2.99c0,0.5,0.19,1.68,1.99,1.68
		c1.58,0,1.92-0.9,1.98-1.46c-0.1,0.01-0.2,0.02-0.32,0.02C31.39,23.99,31.08,23.21,31.08,22.56z"/>
	<path class="st1" d="M35.1,11.77c0.06-0.12,0.13-0.2,0.2-0.3c-1.01,0.06-1.61,0.46-2.08,1.38l-0.99,1.88l0.66,1.26L35.1,11.77z"/>
	<path class="st1" d="M53.38,13.5c-0.22,0-0.43,0.01-0.63,0.04v1.55c0.51,0.18,0.91,0.55,0.91,1.28c0,0.21-0.04,0.39-0.11,0.55
		c0.88-0.06,2.01-0.4,2.01-1.74C55.57,13.71,54.2,13.5,53.38,13.5z"/>
	<path class="st1" d="M55.49,22.58l-1.83-2.77c-0.33,0.02-0.69,0.01-0.86,0v2.74c0,0.03,0,0.07-0.01,0.1l0.82,1.25
		c0.67,1.03,1.24,1.52,2.64,1.52c1.57,0,1.9-0.7,1.9-1.29c0-0.05-0.01-0.11-0.01-0.16c-0.09,0-0.17,0-0.23,0
		C56.63,23.99,56.13,23.56,55.49,22.58z"/>
	<path class="st1" d="M49.44,22.56v-9.63c0-0.41,0.01-0.91,0.26-1.34c-0.21,0.04-0.4,0.08-0.57,0.13c-1.6,0.46-1.6,1.68-1.6,2.41
		v9.63c0,0.5,0.19,1.68,1.93,1.68c1.53,0,1.86-0.9,1.92-1.46c-0.09,0.01-0.17,0.02-0.26,0.02C49.73,23.99,49.44,23.21,49.44,22.56z"
		/>
	<path class="st1" d="M70.37,22.56V11.95c0-0.16,0.02-0.33,0.07-0.49c-1.78,0.01-1.98,1.17-1.98,1.68v10.61
		c0,0.5,0.19,1.68,1.99,1.68c1.58,0,1.92-0.9,1.98-1.46c-0.1,0.01-0.2,0.02-0.32,0.02C70.67,23.99,70.37,23.21,70.37,22.56z"/>
	<path class="st1" d="M92.06,22.75l-3.19-4.36v3.88l1.33,1.81c0.77,1.03,1.37,1.34,2.58,1.34c1.65,0,1.9-0.81,1.9-1.29
		c0-0.06-0.01-0.12-0.02-0.17c-0.08,0-0.13,0.02-0.22,0.02C93.31,23.99,92.77,23.71,92.06,22.75z"/>
	<path class="st1" d="M92.22,11.52c0.01-0.01,0.01-0.01,0.02-0.02c-0.81,0.08-1.35,0.38-1.87,1.06l-1.49,1.87v1.29L92.22,11.52z"/>
	<path class="st1" d="M85.38,22.56V11.95c0-0.16,0.02-0.33,0.07-0.49c-1.78,0.01-1.98,1.17-1.98,1.68v10.61
		c0,0.5,0.19,1.68,1.99,1.68c1.58,0,1.92-0.9,1.98-1.46c-0.1,0.01-0.2,0.02-0.32,0.02C85.69,23.99,85.38,23.21,85.38,22.56z"/>
	<path class="st1" d="M106.9,22.15v-10.2c0-0.16,0.02-0.33,0.07-0.49c-1.78,0.01-1.98,1.17-1.98,1.68v10.2
		c0,1.32,0.67,1.99,1.99,1.99h5.15c0.94,0,1.53-0.52,1.65-1.44h-5.14C107.47,23.89,106.9,23.32,106.9,22.15z"/>
</g>
</svg>
