<?xml version="1.0" encoding="utf-8"?>
<!-- Generator: Adobe Illustrator 24.3.0, SVG Export Plug-In . SVG Version: 6.00 Build 0)  -->
<svg version="1.1" id="Layer_1" xmlns="http://www.w3.org/2000/svg" xmlns:xlink="http://www.w3.org/1999/xlink" x="0px" y="0px"
	 viewBox="0 0 18.26 18.26" style="enable-background:new 0 0 18.26 18.26;" xml:space="preserve">
<style type="text/css">
	.st0{fill:#F5ED6A;}
	.st1{stroke:#000000;stroke-miterlimit:10;}
	.st2{fill:#F5ED6A;stroke:#F5ED6A;stroke-width:0.5;stroke-miterlimit:10;}
</style>
<path class="st0" d="M15.48,18.13H2.78c-1.46,0-2.65-1.18-2.65-2.65V2.78c0-1.46,1.18-2.65,2.65-2.65h12.71
	c1.46,0,2.65,1.18,2.65,2.65v12.71C18.13,16.94,16.94,18.13,15.48,18.13z"/>
<g>
	<path class="st1" d="M12.14,12.87c0.79,0,1.18,0.43,1.18,1.32s-0.39,1.34-1.18,1.34H6.99c-1.04,0-1.49-0.45-1.49-1.49V3.83
		c0-0.79,0.49-1.18,1.49-1.18c1,0,1.49,0.39,1.49,1.18v9.04H12.14z"/>
	<path class="st2" d="M13.8,11.68c0.79,0,1.18,0.43,1.18,1.32s-0.39,1.34-1.18,1.34H8.65c-1.04,0-1.49-0.45-1.49-1.49V2.63
		c0-0.79,0.49-1.18,1.49-1.18c1,0,1.49,0.39,1.49,1.18v9.04H13.8z"/>
</g>
</svg>
